<svg xmlns="http://www.w3.org/2000/svg" width="133" height="133" viewBox="0 0 133 133"><g transform="translate(-676 -745)"><circle cx="66.5" cy="66.5" r="66.5" transform="translate(676 745)" fill="#23b6e5"/><path d="M51.429,54.817V7.059A5.635,5.635,0,0,0,45.81,1.44H12.1A5.635,5.635,0,0,0,6.48,7.059V60.436A5.635,5.635,0,0,0,12.1,66.054H45.81c2.61,0,5.619,0,5.619-2.809v-1.4H13.5a2.818,2.818,0,0,1-2.809-2.809V54.817H51.429ZM13.5,12.677a1.409,1.409,0,0,1,1.4-1.4H43a1.409,1.409,0,0,1,1.4,1.4v2.809a1.409,1.409,0,0,1-1.4,1.4H14.908a1.409,1.409,0,0,1-1.4-1.4V12.677Zm0,11.237a1.409,1.409,0,0,1,1.4-1.4H43a1.409,1.409,0,0,1,1.4,1.4v2.809a1.409,1.409,0,0,1-1.4,1.4H14.908a1.409,1.409,0,0,1-1.4-1.4V23.914Z" transform="translate(713.52 777.56)" fill="#fff"/></g></svg>