<svg xmlns="http://www.w3.org/2000/svg" width="134" height="133" viewBox="0 0 134 133"><g transform="translate(-1120 -745)"><ellipse cx="67" cy="66.5" rx="67" ry="66.5" transform="translate(1120 745)" fill="#23b6e5"/><path d="M58.414,14.666H52.581V40.915H14.666v5.833a2.925,2.925,0,0,0,2.917,2.917H49.665L61.331,61.331V17.583A2.925,2.925,0,0,0,58.414,14.666Zm-11.666,17.5V5.917A2.925,2.925,0,0,0,43.832,3H5.917A2.925,2.925,0,0,0,3,5.917V46.748L14.666,35.082H43.832A2.925,2.925,0,0,0,46.748,32.165Z" transform="translate(1155 779)" fill="#fff"/></g></svg>