<svg xmlns="http://www.w3.org/2000/svg" width="42" height="42" viewBox="0 0 42 42"><g transform="translate(-1363 -2704)"><circle cx="21" cy="21" r="21" transform="translate(1363 2704)"/><path d="M8.2,19.808c0,.1-.114.178-.257.178-.163.015-.277-.064-.277-.178s.114-.178.257-.178S8.2,19.694,8.2,19.808Zm-1.537-.222c-.035.1.064.213.213.242a.232.232,0,0,0,.306-.1c.03-.1-.064-.213-.213-.257A.254.254,0,0,0,6.662,19.585ZM8.847,19.5c-.143.035-.242.128-.227.242s.143.163.292.128.242-.128.227-.227S8.99,19.486,8.847,19.5ZM12.1.563A11.851,11.851,0,0,0,0,12.622,12.391,12.391,0,0,0,8.377,24.444c.633.114.855-.277.855-.6s-.015-2-.015-3.035c0,0-3.46.741-4.186-1.473,0,0-.563-1.438-1.374-1.809,0,0-1.132-.776.079-.761a2.609,2.609,0,0,1,1.908,1.275,2.613,2.613,0,0,0,3.6,1.033,2.747,2.747,0,0,1,.791-1.666c-2.763-.306-5.55-.707-5.55-5.461A3.746,3.746,0,0,1,5.654,9.038a4.67,4.67,0,0,1,.128-3.356c1.033-.321,3.41,1.334,3.41,1.334a11.676,11.676,0,0,1,6.207,0s2.377-1.661,3.41-1.334a4.667,4.667,0,0,1,.128,3.356,3.842,3.842,0,0,1,1.275,2.911c0,4.769-2.911,5.15-5.674,5.461a2.923,2.923,0,0,1,.84,2.293c0,1.666-.015,3.726-.015,4.132,0,.321.227.712.855.6a12.277,12.277,0,0,0,8.293-11.812A12.118,12.118,0,0,0,12.1.563ZM4.8,17.608c-.064.049-.049.163.035.257s.193.114.257.049.049-.163-.035-.257S4.868,17.544,4.8,17.608Zm-.534-.4c-.035.064.015.143.114.193a.147.147,0,0,0,.213-.035c.035-.064-.015-.143-.114-.193C4.384,17.144,4.3,17.159,4.27,17.208Zm1.6,1.759c-.079.064-.049.213.064.306.114.114.257.128.321.049s.035-.213-.064-.306C6.084,18.9,5.936,18.888,5.871,18.968Zm-.563-.727c-.079.049-.079.178,0,.292s.213.163.277.114a.225.225,0,0,0,0-.306C5.516,18.226,5.387,18.177,5.308,18.241Z" transform="translate(1372 2712.438)" fill="#fff"/></g></svg>