<svg xmlns="http://www.w3.org/2000/svg" width="42" height="42" viewBox="0 0 42 42"><g transform="translate(-1305 -2704)"><circle cx="21" cy="21" r="21" transform="translate(1305 2704)" fill="#e82071"/><path d="M11.468,7.825a5.881,5.881,0,1,0,5.881,5.881A5.871,5.871,0,0,0,11.468,7.825Zm0,9.7a3.823,3.823,0,1,1,3.823-3.823,3.83,3.83,0,0,1-3.823,3.823Zm7.493-9.945A1.372,1.372,0,1,1,17.59,6.213,1.368,1.368,0,0,1,18.961,7.585Zm3.895,1.392A6.788,6.788,0,0,0,21,4.171,6.833,6.833,0,0,0,16.2,2.318c-1.894-.107-7.57-.107-9.463,0A6.823,6.823,0,0,0,1.928,4.166,6.81,6.81,0,0,0,.075,8.972c-.107,1.894-.107,7.57,0,9.463a6.788,6.788,0,0,0,1.853,4.806,6.841,6.841,0,0,0,4.806,1.853c1.894.107,7.57.107,9.463,0A6.788,6.788,0,0,0,21,23.241a6.833,6.833,0,0,0,1.853-4.806c.107-1.894.107-7.565,0-9.458ZM20.41,20.467a3.871,3.871,0,0,1-2.18,2.18c-1.51.6-5.093.461-6.761.461s-5.256.133-6.761-.461a3.871,3.871,0,0,1-2.18-2.18c-.6-1.51-.461-5.093-.461-6.761s-.133-5.256.461-6.761a3.871,3.871,0,0,1,2.18-2.18c1.51-.6,5.093-.461,6.761-.461s5.256-.133,6.761.461a3.871,3.871,0,0,1,2.18,2.18c.6,1.51.461,5.093.461,6.761S21.008,18.962,20.41,20.467Z" transform="translate(1315 2711.762)" fill="#fff"/></g></svg>