<svg xmlns="http://www.w3.org/2000/svg" width="133" height="133" viewBox="0 0 133 133"><g transform="translate(-898 -745)"><circle cx="66.5" cy="66.5" r="66.5" transform="translate(898 745)" fill="#23b6e5"/><g transform="translate(877 777)"><path d="M103.451,60v8.086H71.107V60H61v60.914h52.559V60ZM73.129,113.53l-5.473-5.471,2.86-2.86,2.613,2.614,6.656-6.657,2.86,2.86Zm0-12.129L67.656,95.93l2.86-2.86,2.613,2.614,6.656-6.657,2.86,2.86Zm0-12.129L67.656,83.8l2.86-2.86,2.613,2.614L79.785,76.9l2.86,2.86Zm32.344,19.378H85.258v-4.043h20.215Zm0-12.129H85.258V92.479h20.215Zm0-12.129H85.258V80.35h20.215Z" transform="translate(0 -51.914)" fill="#fff"/><path d="M182.172,4.043a4.043,4.043,0,0,0-8.086,0H166v8.086h24.258V4.043Z" transform="translate(-90.85)" fill="#fff"/></g></g></svg>