<svg xmlns="http://www.w3.org/2000/svg" width="118.345" height="194.207" viewBox="0 0 118.345 194.207"><g transform="translate(-100)"><path d="M237.379,392,226,414.759l11.379,22.759a22.759,22.759,0,0,0,0-45.517Z" transform="translate(-78.207 -243.31)" fill="#0a77e8"/><path d="M196,414.759a22.759,22.759,0,0,0,22.759,22.759V392A22.759,22.759,0,0,0,196,414.759Z" transform="translate(-59.586 -243.31)" fill="#0f9af0"/><path d="M218.759,0,196,22.759l22.759,22.759a13.654,13.654,0,0,1,8.823,24.075l-8.823,7.5L203.586,107.2l15.172,30.109h22.759V117.488l15.543-13.214A59.171,59.171,0,0,0,218.759,0Z" transform="translate(-59.586)" fill="#0a77e8"/><g transform="translate(100)"><path d="M196,222.6v40.868h22.759V203.246Z" transform="translate(-159.586 -126.153)" fill="#0f9af0"/><path d="M100,59.172v5.69h45.517v-5.69a13.67,13.67,0,0,1,13.655-13.655V0A59.239,59.239,0,0,0,100,59.172Z" transform="translate(-100)" fill="#0f9af0"/></g></g></svg>